<?xml version="1.0" encoding="UTF-8" standalone="no"?>
<svg
   xmlns:dc="http://purl.org/dc/elements/1.1/"
   xmlns:cc="http://creativecommons.org/ns#"
   xmlns:rdf="http://www.w3.org/1999/02/22-rdf-syntax-ns#"
   xmlns:svg="http://www.w3.org/2000/svg"
   xmlns="http://www.w3.org/2000/svg"
   viewBox="0 0 354.32501 354.32501"
   height="354.32501"
   width="354.32501"
   xml:space="preserve"
   version="1.1"
   id="svg3374"><metadata
     id="metadata3380"><rdf:RDF><cc:Work
         rdf:about=""><dc:format>image/svg+xml</dc:format><dc:type
           rdf:resource="http://purl.org/dc/dcmitype/StillImage" /><dc:title></dc:title></cc:Work></rdf:RDF></metadata><defs
     id="defs3378"><clipPath
       id="clipPath3398"
       clipPathUnits="userSpaceOnUse"><path
         id="path3400"
         d="m 0,283.46 283.46,0 L 283.46,0 0,0 0,283.46 Z" /></clipPath></defs><g
     transform="matrix(1.25,0,0,-1.25,0,354.325)"
     id="g3382"><path
       id="path3384"
       style="fill:#cf181f;fill-opacity:1;fill-rule:nonzero;stroke:none"
       d="m 0,0.17 283.287,0 0,283.29 L 0,283.46 0,0.17 Z" /><g
       transform="translate(53.5645,167.7139)"
       id="g3386"><path
         id="path3388"
         style="fill:#ffffff;fill-opacity:1;fill-rule:nonzero;stroke:none"
         d="m 0,0 14.1,0 0,-39.102 24.637,0 0,-12.542 L 0,-51.644 0,0 Z" /></g><g
       transform="translate(97.6069,167.7139)"
       id="g3390"><path
         id="path3392"
         style="fill:#ffffff;fill-opacity:1;fill-rule:nonzero;stroke:none"
         d="m 0,0 40.917,0 0,-12.173 -26.963,0 0,-7.821 24.42,0 0,-11.287 -24.42,0 0,-8.19 27.327,0 0,-12.173 L 0,-51.644 0,0 Z" /></g><g
       id="g3394"><g
         clip-path="url(#clipPath3398)"
         id="g3396"><g
           transform="translate(141.5034,124.1856)"
           id="g3402"><path
             id="path3404"
             style="fill:#ffffff;fill-opacity:1;fill-rule:nonzero;stroke:none"
             d="M 0,0 8.867,9.001 C 12.5,5.238 16.353,3.099 21.004,3.099 c 3.997,0 6.54,2.065 6.54,5.238 l 0,0.147 c 0,3.321 -2.979,5.312 -8.285,5.312 l -5.959,0 -2.035,7.452 11.701,10.697 -19.477,0 0,11.583 36.774,0 0,-10.255 -12.137,-10.55 C 35.394,21.1 41.281,16.969 41.281,8.189 l 0,-0.147 c 0,-10.477 -8.285,-17.19 -19.623,-17.19 C 11.846,-9.148 4.942,-5.533 0,0" /></g><g
           transform="translate(212.1445,136.7276)"
           id="g3406"><path
             id="path3408"
             style="fill:#ffffff;fill-opacity:1;fill-rule:nonzero;stroke:none"
             d="M 0,0 0,14.829 -12.137,0 0,0 Z m 0,-10.624 -24.638,0 -2.326,10.107 26.383,31.872 14.244,0 0,-31.281 6.469,0 0,-10.698 -6.469,0 0,-10.033 -13.663,0 0,10.033 z" /></g></g></g></g></svg>